<mxfile host="app.diagrams.net" agent="Mozilla/5.0 (Windows NT 10.0; Win64; x64) AppleWebKit/537.36 (KHTML, like Gecko) Chrome/130.0.0.0 Safari/537.36" version="24.8.3">
  <diagram name="Page-1" id="OmvCUGyUu_Bam078sp36">
    <mxGraphModel dx="1259" dy="686" grid="1" gridSize="10" guides="1" tooltips="1" connect="1" arrows="1" fold="1" page="1" pageScale="1" pageWidth="850" pageHeight="1100" math="0" shadow="0">
      <root>
        <mxCell id="0" />
        <mxCell id="1" parent="0" />
        <mxCell id="12fEDVRH-epH4M22NH8Y-1" value="" style="rounded=0;whiteSpace=wrap;html=1;fillColor=#dae8fc;strokeColor=#6c8ebf;" vertex="1" parent="1">
          <mxGeometry x="90" y="150" width="170" height="110" as="geometry" />
        </mxCell>
        <mxCell id="12fEDVRH-epH4M22NH8Y-4" style="edgeStyle=orthogonalEdgeStyle;rounded=0;orthogonalLoop=1;jettySize=auto;html=1;entryX=0;entryY=0.5;entryDx=0;entryDy=0;" edge="1" parent="1" source="12fEDVRH-epH4M22NH8Y-2" target="12fEDVRH-epH4M22NH8Y-3">
          <mxGeometry relative="1" as="geometry" />
        </mxCell>
        <mxCell id="12fEDVRH-epH4M22NH8Y-2" value="&lt;b&gt;Pod&lt;/b&gt;" style="ellipse;whiteSpace=wrap;html=1;fillColor=#d5e8d4;strokeColor=#82b366;" vertex="1" parent="1">
          <mxGeometry x="120" y="175" width="100" height="60" as="geometry" />
        </mxCell>
        <mxCell id="12fEDVRH-epH4M22NH8Y-3" value="&lt;b&gt;NFS&lt;/b&gt;" style="rounded=1;whiteSpace=wrap;html=1;" vertex="1" parent="1">
          <mxGeometry x="480" y="160" width="150" height="90" as="geometry" />
        </mxCell>
        <mxCell id="12fEDVRH-epH4M22NH8Y-5" value="" style="image;aspect=fixed;perimeter=ellipsePerimeter;html=1;align=center;shadow=0;dashed=0;spacingTop=3;image=img/lib/active_directory/security.svg;" vertex="1" parent="1">
          <mxGeometry x="450" y="120" width="31.5" height="50" as="geometry" />
        </mxCell>
        <mxCell id="12fEDVRH-epH4M22NH8Y-6" value="" style="image;aspect=fixed;perimeter=ellipsePerimeter;html=1;align=center;shadow=0;dashed=0;spacingTop=3;image=img/lib/active_directory/security.svg;" vertex="1" parent="1">
          <mxGeometry x="240" y="110" width="31.5" height="50" as="geometry" />
        </mxCell>
        <mxCell id="12fEDVRH-epH4M22NH8Y-7" value="&lt;b&gt;2049&lt;/b&gt;" style="text;html=1;align=center;verticalAlign=middle;resizable=0;points=[];autosize=1;strokeColor=none;fillColor=none;" vertex="1" parent="1">
          <mxGeometry x="420" y="80" width="50" height="30" as="geometry" />
        </mxCell>
        <mxCell id="12fEDVRH-epH4M22NH8Y-12" style="edgeStyle=orthogonalEdgeStyle;rounded=0;orthogonalLoop=1;jettySize=auto;html=1;entryX=0;entryY=0.5;entryDx=0;entryDy=0;flowAnimation=1;" edge="1" parent="1" source="12fEDVRH-epH4M22NH8Y-8" target="12fEDVRH-epH4M22NH8Y-9">
          <mxGeometry relative="1" as="geometry" />
        </mxCell>
        <mxCell id="12fEDVRH-epH4M22NH8Y-13" style="edgeStyle=orthogonalEdgeStyle;rounded=0;orthogonalLoop=1;jettySize=auto;html=1;entryX=0;entryY=0.5;entryDx=0;entryDy=0;flowAnimation=1;" edge="1" parent="1" source="12fEDVRH-epH4M22NH8Y-8" target="12fEDVRH-epH4M22NH8Y-10">
          <mxGeometry relative="1" as="geometry">
            <mxPoint x="400" y="510" as="targetPoint" />
          </mxGeometry>
        </mxCell>
        <mxCell id="12fEDVRH-epH4M22NH8Y-14" style="edgeStyle=orthogonalEdgeStyle;rounded=0;orthogonalLoop=1;jettySize=auto;html=1;entryX=0;entryY=0.5;entryDx=0;entryDy=0;flowAnimation=1;" edge="1" parent="1" source="12fEDVRH-epH4M22NH8Y-8" target="12fEDVRH-epH4M22NH8Y-11">
          <mxGeometry relative="1" as="geometry" />
        </mxCell>
        <mxCell id="12fEDVRH-epH4M22NH8Y-8" value="&lt;b&gt;MySQL Master&lt;/b&gt;" style="rounded=0;whiteSpace=wrap;html=1;fillColor=#dae8fc;gradientColor=#7ea6e0;strokeColor=#6c8ebf;" vertex="1" parent="1">
          <mxGeometry x="170" y="480" width="120" height="60" as="geometry" />
        </mxCell>
        <mxCell id="12fEDVRH-epH4M22NH8Y-16" style="edgeStyle=orthogonalEdgeStyle;rounded=0;orthogonalLoop=1;jettySize=auto;html=1;" edge="1" parent="1" source="12fEDVRH-epH4M22NH8Y-9" target="12fEDVRH-epH4M22NH8Y-15">
          <mxGeometry relative="1" as="geometry" />
        </mxCell>
        <mxCell id="12fEDVRH-epH4M22NH8Y-9" value="&lt;b&gt;NODE&lt;/b&gt;" style="rounded=0;whiteSpace=wrap;html=1;fillColor=#d5e8d4;gradientColor=#97d077;strokeColor=#82b366;" vertex="1" parent="1">
          <mxGeometry x="405.75" y="380" width="120" height="60" as="geometry" />
        </mxCell>
        <mxCell id="12fEDVRH-epH4M22NH8Y-10" value="&lt;b&gt;NODE&lt;/b&gt;" style="rounded=0;whiteSpace=wrap;html=1;fillColor=#d5e8d4;gradientColor=#97d077;strokeColor=#82b366;" vertex="1" parent="1">
          <mxGeometry x="405.75" y="480" width="120" height="60" as="geometry" />
        </mxCell>
        <mxCell id="12fEDVRH-epH4M22NH8Y-11" value="&lt;b&gt;NODE&lt;/b&gt;" style="rounded=0;whiteSpace=wrap;html=1;fillColor=#d5e8d4;gradientColor=#97d077;strokeColor=#82b366;" vertex="1" parent="1">
          <mxGeometry x="405.75" y="600" width="120" height="60" as="geometry" />
        </mxCell>
        <mxCell id="12fEDVRH-epH4M22NH8Y-15" value="" style="shape=cylinder3;whiteSpace=wrap;html=1;boundedLbl=1;backgroundOutline=1;size=15;fillColor=#f8cecc;gradientColor=#ea6b66;strokeColor=#b85450;" vertex="1" parent="1">
          <mxGeometry x="640" y="370" width="60" height="80" as="geometry" />
        </mxCell>
        <mxCell id="12fEDVRH-epH4M22NH8Y-17" value="" style="shape=cylinder3;whiteSpace=wrap;html=1;boundedLbl=1;backgroundOutline=1;size=15;fillColor=#f8cecc;gradientColor=#ea6b66;strokeColor=#b85450;" vertex="1" parent="1">
          <mxGeometry x="640" y="470" width="60" height="80" as="geometry" />
        </mxCell>
        <mxCell id="12fEDVRH-epH4M22NH8Y-19" value="" style="shape=cylinder3;whiteSpace=wrap;html=1;boundedLbl=1;backgroundOutline=1;size=15;fillColor=#f8cecc;gradientColor=#ea6b66;strokeColor=#b85450;" vertex="1" parent="1">
          <mxGeometry x="640" y="590" width="60" height="80" as="geometry" />
        </mxCell>
        <mxCell id="12fEDVRH-epH4M22NH8Y-20" style="edgeStyle=orthogonalEdgeStyle;rounded=0;orthogonalLoop=1;jettySize=auto;html=1;entryX=0;entryY=0.5;entryDx=0;entryDy=0;entryPerimeter=0;" edge="1" parent="1" source="12fEDVRH-epH4M22NH8Y-11" target="12fEDVRH-epH4M22NH8Y-19">
          <mxGeometry relative="1" as="geometry" />
        </mxCell>
        <mxCell id="12fEDVRH-epH4M22NH8Y-21" style="edgeStyle=orthogonalEdgeStyle;rounded=0;orthogonalLoop=1;jettySize=auto;html=1;entryX=0;entryY=0.5;entryDx=0;entryDy=0;entryPerimeter=0;" edge="1" parent="1" source="12fEDVRH-epH4M22NH8Y-10" target="12fEDVRH-epH4M22NH8Y-17">
          <mxGeometry relative="1" as="geometry" />
        </mxCell>
        <mxCell id="12fEDVRH-epH4M22NH8Y-22" value="&lt;b&gt;CUD&lt;/b&gt;" style="text;html=1;align=center;verticalAlign=middle;resizable=0;points=[];autosize=1;strokeColor=none;fillColor=none;" vertex="1" parent="1">
          <mxGeometry x="555" y="350" width="50" height="30" as="geometry" />
        </mxCell>
        <mxCell id="12fEDVRH-epH4M22NH8Y-23" value="" style="endArrow=classic;html=1;rounded=0;flowAnimation=1;" edge="1" parent="1">
          <mxGeometry width="50" height="50" relative="1" as="geometry">
            <mxPoint x="580" y="410" as="sourcePoint" />
            <mxPoint x="580" y="630" as="targetPoint" />
          </mxGeometry>
        </mxCell>
        <mxCell id="12fEDVRH-epH4M22NH8Y-24" style="edgeStyle=orthogonalEdgeStyle;rounded=0;orthogonalLoop=1;jettySize=auto;html=1;" edge="1" parent="1" source="12fEDVRH-epH4M22NH8Y-25" target="12fEDVRH-epH4M22NH8Y-28">
          <mxGeometry relative="1" as="geometry" />
        </mxCell>
        <mxCell id="12fEDVRH-epH4M22NH8Y-25" value="&lt;b&gt;Pod&lt;/b&gt;" style="rounded=0;whiteSpace=wrap;html=1;fillColor=#d5e8d4;gradientColor=#97d077;strokeColor=#82b366;" vertex="1" parent="1">
          <mxGeometry x="405.75" y="730" width="120" height="60" as="geometry" />
        </mxCell>
        <mxCell id="12fEDVRH-epH4M22NH8Y-26" value="&lt;b&gt;Pod&lt;/b&gt;" style="rounded=0;whiteSpace=wrap;html=1;fillColor=#d5e8d4;gradientColor=#97d077;strokeColor=#82b366;" vertex="1" parent="1">
          <mxGeometry x="405.75" y="830" width="120" height="60" as="geometry" />
        </mxCell>
        <mxCell id="12fEDVRH-epH4M22NH8Y-27" value="&lt;b&gt;Pod&lt;/b&gt;" style="rounded=0;whiteSpace=wrap;html=1;fillColor=#d5e8d4;gradientColor=#97d077;strokeColor=#82b366;" vertex="1" parent="1">
          <mxGeometry x="405.75" y="950" width="120" height="60" as="geometry" />
        </mxCell>
        <mxCell id="12fEDVRH-epH4M22NH8Y-28" value="" style="shape=cylinder3;whiteSpace=wrap;html=1;boundedLbl=1;backgroundOutline=1;size=15;fillColor=#f8cecc;gradientColor=#ea6b66;strokeColor=#b85450;" vertex="1" parent="1">
          <mxGeometry x="640" y="720" width="60" height="80" as="geometry" />
        </mxCell>
        <mxCell id="12fEDVRH-epH4M22NH8Y-29" value="" style="shape=cylinder3;whiteSpace=wrap;html=1;boundedLbl=1;backgroundOutline=1;size=15;fillColor=#f8cecc;gradientColor=#ea6b66;strokeColor=#b85450;" vertex="1" parent="1">
          <mxGeometry x="640" y="820" width="60" height="80" as="geometry" />
        </mxCell>
        <mxCell id="12fEDVRH-epH4M22NH8Y-30" value="" style="shape=cylinder3;whiteSpace=wrap;html=1;boundedLbl=1;backgroundOutline=1;size=15;fillColor=#f8cecc;gradientColor=#ea6b66;strokeColor=#b85450;" vertex="1" parent="1">
          <mxGeometry x="640" y="940" width="60" height="80" as="geometry" />
        </mxCell>
        <mxCell id="12fEDVRH-epH4M22NH8Y-31" style="edgeStyle=orthogonalEdgeStyle;rounded=0;orthogonalLoop=1;jettySize=auto;html=1;entryX=0;entryY=0.5;entryDx=0;entryDy=0;entryPerimeter=0;" edge="1" parent="1" source="12fEDVRH-epH4M22NH8Y-27" target="12fEDVRH-epH4M22NH8Y-30">
          <mxGeometry relative="1" as="geometry" />
        </mxCell>
        <mxCell id="12fEDVRH-epH4M22NH8Y-32" style="edgeStyle=orthogonalEdgeStyle;rounded=0;orthogonalLoop=1;jettySize=auto;html=1;entryX=0;entryY=0.5;entryDx=0;entryDy=0;entryPerimeter=0;" edge="1" parent="1" source="12fEDVRH-epH4M22NH8Y-26" target="12fEDVRH-epH4M22NH8Y-29">
          <mxGeometry relative="1" as="geometry" />
        </mxCell>
        <mxCell id="12fEDVRH-epH4M22NH8Y-33" value="" style="endArrow=classic;html=1;rounded=0;flowAnimation=1;" edge="1" parent="1">
          <mxGeometry width="50" height="50" relative="1" as="geometry">
            <mxPoint x="580" y="760" as="sourcePoint" />
            <mxPoint x="580" y="980" as="targetPoint" />
          </mxGeometry>
        </mxCell>
        <mxCell id="12fEDVRH-epH4M22NH8Y-37" style="edgeStyle=orthogonalEdgeStyle;rounded=0;orthogonalLoop=1;jettySize=auto;html=1;" edge="1" parent="1" source="12fEDVRH-epH4M22NH8Y-34" target="12fEDVRH-epH4M22NH8Y-36">
          <mxGeometry relative="1" as="geometry" />
        </mxCell>
        <mxCell id="12fEDVRH-epH4M22NH8Y-34" value="&lt;b&gt;Backend&lt;/b&gt;" style="rounded=0;whiteSpace=wrap;html=1;fillColor=#dae8fc;gradientColor=#7ea6e0;strokeColor=#6c8ebf;" vertex="1" parent="1">
          <mxGeometry x="40" y="830" width="120" height="60" as="geometry" />
        </mxCell>
        <mxCell id="12fEDVRH-epH4M22NH8Y-38" style="edgeStyle=orthogonalEdgeStyle;rounded=0;orthogonalLoop=1;jettySize=auto;html=1;entryX=0;entryY=0.5;entryDx=0;entryDy=0;" edge="1" parent="1" source="12fEDVRH-epH4M22NH8Y-36" target="12fEDVRH-epH4M22NH8Y-25">
          <mxGeometry relative="1" as="geometry" />
        </mxCell>
        <mxCell id="12fEDVRH-epH4M22NH8Y-39" style="edgeStyle=orthogonalEdgeStyle;rounded=0;orthogonalLoop=1;jettySize=auto;html=1;" edge="1" parent="1" source="12fEDVRH-epH4M22NH8Y-36">
          <mxGeometry relative="1" as="geometry">
            <mxPoint x="400" y="860" as="targetPoint" />
          </mxGeometry>
        </mxCell>
        <mxCell id="12fEDVRH-epH4M22NH8Y-40" style="edgeStyle=orthogonalEdgeStyle;rounded=0;orthogonalLoop=1;jettySize=auto;html=1;entryX=0;entryY=0.5;entryDx=0;entryDy=0;" edge="1" parent="1" source="12fEDVRH-epH4M22NH8Y-36" target="12fEDVRH-epH4M22NH8Y-27">
          <mxGeometry relative="1" as="geometry" />
        </mxCell>
        <mxCell id="12fEDVRH-epH4M22NH8Y-36" value="&lt;b&gt;MySQL&lt;/b&gt;" style="rounded=1;whiteSpace=wrap;html=1;fillColor=#f5f5f5;gradientColor=#b3b3b3;strokeColor=#666666;" vertex="1" parent="1">
          <mxGeometry x="230" y="830" width="120" height="60" as="geometry" />
        </mxCell>
        <mxCell id="12fEDVRH-epH4M22NH8Y-41" value="&lt;b&gt;mysql-headless&lt;/b&gt;" style="text;html=1;align=center;verticalAlign=middle;resizable=0;points=[];autosize=1;strokeColor=none;fillColor=none;" vertex="1" parent="1">
          <mxGeometry x="530" y="780" width="110" height="30" as="geometry" />
        </mxCell>
      </root>
    </mxGraphModel>
  </diagram>
</mxfile>
